<svg
      id="visual"
      viewBox="0 0 900 400"
      width="100%"
      height="100%"
      xmlns="http://www.w3.org/2000/svg"
    >
      <path
        d="M0 269L21.5 266.2C43 263.3 86 257.7 128.8 252.3C171.7 247 214.3 242 257.2 247.2C300 252.3 343 267.7 385.8 270C428.7 272.3 471.3 261.7 514.2 257.7C557 253.7 600 256.3 642.8 261C685.7 265.7 728.3 272.3 771.2 271.8C814 271.3 857 263.7 878.5 259.8L900 256L900 401L878.5 401C857 401 814 401 771.2 401C728.3 401 685.7 401 642.8 401C600 401 557 401 514.2 401C471.3 401 428.7 401 385.8 401C343 401 300 401 257.2 401C214.3 401 171.7 401 128.8 401C86 401 43 401 21.5 401L0 401Z"
        fill="#715df2"
      ></path>
      <path
        d="M0 297L21.5 299.2C43 301.3 86 305.7 128.8 303.8C171.7 302 214.3 294 257.2 289.2C300 284.3 343 282.7 385.8 286.2C428.7 289.7 471.3 298.3 514.2 303.2C557 308 600 309 642.8 308.5C685.7 308 728.3 306 771.2 299C814 292 857 280 878.5 274L900 268L900 401L878.5 401C857 401 814 401 771.2 401C728.3 401 685.7 401 642.8 401C600 401 557 401 514.2 401C471.3 401 428.7 401 385.8 401C343 401 300 401 257.2 401C214.3 401 171.7 401 128.8 401C86 401 43 401 21.5 401L0 401Z"
        fill="#4158c6"
      ></path>
      <path
        d="M0 332L21.5 325.8C43 319.7 86 307.3 128.8 308.2C171.7 309 214.3 323 257.2 324.2C300 325.3 343 313.7 385.8 309.3C428.7 305 471.3 308 514.2 310.8C557 313.7 600 316.3 642.8 320.3C685.7 324.3 728.3 329.7 771.2 326.3C814 323 857 311 878.5 305L900 299L900 401L878.5 401C857 401 814 401 771.2 401C728.3 401 685.7 401 642.8 401C600 401 557 401 514.2 401C471.3 401 428.7 401 385.8 401C343 401 300 401 257.2 401C214.3 401 171.7 401 128.8 401C86 401 43 401 21.5 401L0 401Z"
        fill="#264d96"
      ></path>
      <path
        d="M0 355L21.5 352.3C43 349.7 86 344.3 128.8 340C171.7 335.7 214.3 332.3 257.2 334.2C300 336 343 343 385.8 344.7C428.7 346.3 471.3 342.7 514.2 343C557 343.3 600 347.7 642.8 351.2C685.7 354.7 728.3 357.3 771.2 356.3C814 355.3 857 350.7 878.5 348.3L900 346L900 401L878.5 401C857 401 814 401 771.2 401C728.3 401 685.7 401 642.8 401C600 401 557 401 514.2 401C471.3 401 428.7 401 385.8 401C343 401 300 401 257.2 401C214.3 401 171.7 401 128.8 401C86 401 43 401 21.5 401L0 401Z"
        fill="#253e65"
      ></path>
      <path
        d="M0 359L21.5 359.5C43 360 86 361 128.8 362.5C171.7 364 214.3 366 257.2 367.3C300 368.7 343 369.3 385.8 368.8C428.7 368.3 471.3 366.7 514.2 364.3C557 362 600 359 642.8 361.2C685.7 363.3 728.3 370.7 771.2 370.7C814 370.7 857 363.3 878.5 359.7L900 356L900 401L878.5 401C857 401 814 401 771.2 401C728.3 401 685.7 401 642.8 401C600 401 557 401 514.2 401C471.3 401 428.7 401 385.8 401C343 401 300 401 257.2 401C214.3 401 171.7 401 128.8 401C86 401 43 401 21.5 401L0 401Z"
        fill="#282d35"
      ></path>
</svg>